<svg xmlns="http://www.w3.org/2000/svg" 
xmlns:xlink="http://www.w3.org/1999/xlink" 
width="1000px" height="500px" 
viewBox="0 0 1000 500" zoomAndPan="disable" preserveAspectRatio="none">
    <style type="text/css"><![CDATA[
		line
		{
			stroke: rgba(255,255,255,0.20);
			stroke-width: 1px;
		}
        #circle
        {
            r: 5px;
            stroke: rgba(255,255,255,0);
            stroke-width: 0px;
            fill: rgba(255,255,255,0.50);
        }
        #hide
        {
            r: 10px;
            stroke: #e90080;
            stroke-width: 0px;
            fill: #e90080;
        }
    ]]></style>

	<line x1="300" y1="500" x2="0" y2="400" />
    <line x1="300" y1="500" x2="600" y2="450" />
    <line x1="600" y1="450" x2="900" y2="450" />
    <line x1="900" y1="450" x2="1000" y2="500" />
    <line x1="200" y1="350" x2="0" y2="200" />
    <line x1="200" y1="350" x2="450" y2="250" />
    <line x1="450" y1="250" x2="750" y2="350" />
    <line x1="750" y1="350" x2="1000" y2="250" />
    <line x1="250" y1="50" x2="0" y2="100" />
    <line x1="250" y1="50" x2="550" y2="150" />
    <line x1="550" y1="150" x2="850" y2="100" />
    <line x1="850" y1="100" x2="1000" y2="50" />

    <line x1="300" y1="500" x2="200" y2="350" />
    <line x1="200" y1="350" x2="250" y2="50" />
    <line x1="250" y1="50" x2="200" y2="0" />
    <line x1="450" y1="500" x2="600" y2="450" />
    <line x1="600" y1="450" x2="450" y2="250" />
    <line x1="450" y1="250" x2="550" y2="150" />
    <line x1="550" y1="150" x2="500" y2="0" />
    <line x1="800" y1="500" x2="900" y2="450" />
    <line x1="900" y1="450" x2="750" y2="350" />
    <line x1="750" y1="350" x2="850" y2="100" />
    <line x1="850" y1="100" x2="800" y2="0" />

    <circle id="hide" cx="800" cy="500" />
    <circle id="hide" cx="450" cy="500" />
    <circle id="hide" cx="0" cy="400" />
    <circle id="hide" cx="300" cy="500" />
    <circle id="hide" cx="600" cy="450" />
    <circle id="hide" cx="900" cy="450" />
    <circle id="hide" cx="1000" cy="500" />
    <circle id="hide" cx="0" cy="200" />
    <circle id="hide" cx="200" cy="350" />
    <circle id="hide" cx="450" cy="250" />
    <circle id="hide" cx="750" cy="350" />
    <circle id="hide" cx="1000" cy="250" />
    <circle id="hide" cx="0" cy="100" />
    <circle id="hide" cx="250" cy="50" />
    <circle id="hide" cx="200" cy="0" />
    <circle id="hide" cx="550" cy="150" />
    <circle id="hide" cx="500" cy="0" />
    <circle id="hide" cx="850" cy="100" />
    <circle id="hide" cx="1000" cy="50" />
    <circle id="hide" cx="800" cy="0" />

    <circle id="circle" cx="800" cy="500" />
    <circle id="circle" cx="450" cy="500" />
    <circle id="circle" cx="0" cy="400" />
    <circle id="circle" cx="300" cy="500" />
    <circle id="circle" cx="600" cy="450" />
    <circle id="circle" cx="900" cy="450" />
    <circle id="circle" cx="1000" cy="500" />
    <circle id="circle" cx="0" cy="200" />
    <circle id="circle" cx="200" cy="350" />
    <circle id="circle" cx="450" cy="250" />
    <circle id="circle" cx="750" cy="350" />
    <circle id="circle" cx="1000" cy="250" />
    <circle id="circle" cx="0" cy="100" />
    <circle id="circle" cx="250" cy="50" />
    <circle id="circle" cx="200" cy="0" />
    <circle id="circle" cx="550" cy="150" />
    <circle id="circle" cx="500" cy="0" />
    <circle id="circle" cx="850" cy="100" />
    <circle id="circle" cx="1000" cy="50" />
    <circle id="circle" cx="800" cy="0" />

</svg>