<svg xmlns="http://www.w3.org/2000/svg" 
xmlns:xlink="http://www.w3.org/1999/xlink" 
width="1000px" height="500px" 
viewBox="0 0 1000 500" zoomAndPan="disable" preserveAspectRatio="none">
    <style type="text/css"><![CDATA[
		line
		{
			stroke: rgba(255,255,255,0.20);
			stroke-width: 1px;
		}
    ]]></style>

    <line x1="200" y1="-200" x2="0" y2="100" />

    <line x1="200" y1="-100" x2="0" y2="200" />
    <line x1="200" y1="-100" x2="400" y2="100" />
    <line x1="400" y1="100" x2="600" y2="-200" />

    <line x1="200" y1="0" x2="0" y2="300" />
    <line x1="200" y1="0" x2="400" y2="200" />
    <line x1="400" y1="200" x2="600" y2="-100" />
    <line x1="600" y1="-100" x2="800" y2="100" />
    <line x1="800" y1="100" x2="1000" y2="-200" />

    <line x1="200" y1="100" x2="0" y2="400" />
    <line x1="200" y1="100" x2="400" y2="300" />
    <line x1="400" y1="300" x2="600" y2="0" />
    <line x1="600" y1="0" x2="800" y2="200" />
    <line x1="800" y1="200" x2="1000" y2="-100" />

	<line x1="200" y1="200" x2="0" y2="500" />
    <line x1="200" y1="200" x2="400" y2="400" />
    <line x1="400" y1="400" x2="600" y2="100" />
    <line x1="600" y1="100" x2="800" y2="300" />
    <line x1="800" y1="300" x2="1000" y2="0" />

    <line x1="200" y1="300" x2="0" y2="600" />
    <line x1="200" y1="300" x2="400" y2="500" />
    <line x1="400" y1="500" x2="600" y2="200" />
    <line x1="600" y1="200" x2="800" y2="400" />
    <line x1="800" y1="400" x2="1000" y2="100" />

    <line x1="200" y1="400" x2="0" y2="700" />
    <line x1="200" y1="400" x2="400" y2="600" />
    <line x1="400" y1="600" x2="600" y2="300" />
    <line x1="600" y1="300" x2="800" y2="500" />
    <line x1="800" y1="500" x2="1000" y2="200" />

    <line x1="400" y1="700" x2="600" y2="400" />
    <line x1="600" y1="400" x2="800" y2="600" />
    <line x1="800" y1="600" x2="1000" y2="300" />

    <line x1="800" y1="700" x2="1000" y2="400" />

</svg>